<svg width="50" height="50" viewBox="0 0 50 50" fill="none" xmlns="http://www.w3.org/2000/svg">
<rect width="50" height="50" rx="16" fill="white"/>
<path d="M23.076 29.423C23.229 30.1861 23.7 31.0418 23.7 31.0418L19.6824 33.3786C18.9187 33.5804 18.1838 33.7101 17.4777 33.7677C16.786 33.8253 16.0367 33.8542 15.2297 33.8542C13.414 33.8542 11.8073 33.4867 10.4095 32.7518C9.01172 32.0169 7.92375 31.0082 7.14561 29.7257C6.38187 28.4287 6 26.9589 6 25.3162C6 23.6302 6.5692 22.0739 7.7076 20.6473C8.86041 19.2063 10.2798 18.0751 11.9658 17.2537C13.6662 16.4179 15.2801 16 16.8076 16C17.7587 16 18.8682 16.1081 20.1363 16.3242C21.4188 16.5404 22.3555 16.7709 22.9463 17.0159V22.7223H20.1796C19.5888 21.3966 18.8971 20.4311 18.1045 19.8259C17.3264 19.2063 16.4762 18.8964 15.5539 18.8964C14.7325 18.8964 13.976 19.1342 13.2843 19.6097C12.607 20.0709 12.0667 20.7121 11.6632 21.5335C11.2741 22.3549 11.0796 23.2699 11.0796 24.2786C11.0796 25.5035 11.2741 26.6203 11.6632 27.629C12.0523 28.6233 12.6503 29.423 13.4572 30.0283C14.2642 30.6335 15.2585 30.9361 16.4401 30.9361H17.1102C17.6722 30.9361 18.1117 30.9217 18.4287 30.8929V27.1967L14.8838 26.3969L15.7485 24.6677H25.1295V26.2024L23.076 27.9964C23.076 27.9964 22.923 28.6599 23.076 29.423Z" fill="black"/>
<path d="M29.609 32.9967C29.609 32.5644 29.3785 32.1826 28.9173 31.8511C28.4706 31.5053 27.7645 31.0802 26.7991 30.5758C25.6751 30.0138 24.8177 29.4951 24.2269 29.0195C23.636 28.544 23.3406 27.982 23.3406 27.3336C23.3406 26.8148 23.5496 26.26 23.9675 25.6692C24.3998 25.0784 24.9185 24.5812 25.5238 24.1777C26.1434 23.7743 26.7198 23.5725 27.253 23.5725C27.887 23.5725 28.6291 23.659 29.4793 23.8319C30.3295 23.9904 30.9492 24.1705 31.3383 24.3723V27.6578H30.625C30.135 26.7355 29.5802 26.015 28.9606 25.4963C28.3554 24.9775 27.7285 24.7181 27.0801 24.7181C26.5901 24.7181 26.201 24.8478 25.9128 25.1072C25.6246 25.3666 25.4805 25.6836 25.4805 26.0583C25.4805 26.5338 25.7111 26.9517 26.1722 27.3119C26.6478 27.6578 27.3827 28.0829 28.377 28.5872C29.1119 28.9619 29.7027 29.2861 30.1494 29.5599C30.5961 29.8193 30.9708 30.1291 31.2734 30.4894C31.5904 30.8496 31.7489 31.2531 31.7489 31.6998C31.7489 32.233 31.7201 32.9679 31.2734 33.5587C30.8267 34.1351 30.3384 34.541 29.7043 34.9445C29.0703 35.348 28.2401 35.4609 27.7069 35.4609C27.0152 35.4609 26.1938 35.3744 25.2428 35.2015C24.2917 35.0286 23.6144 34.8484 23.2109 34.6611V31.1846L23.7001 31.0418C24.2045 31.964 25.0338 33.0544 25.7399 33.5587C26.4604 34.0631 27.1809 34.3153 27.9014 34.3153C28.4058 34.3153 28.8165 34.1856 29.1335 33.9262C29.4505 33.6668 29.609 33.357 29.609 32.9967Z" fill="black"/>
<path d="M42.6109 35.5233H38.677V28.1526C38.677 27.3312 38.5473 26.762 38.2879 26.445C38.0285 26.1279 37.5746 25.9694 36.9261 25.9694C36.4218 25.9694 35.9246 26.0631 35.4347 26.2504C34.9592 26.4233 34.3828 26.7836 33.7055 27.3312V33.9887L35.6508 34.7668L35.2618 35.5233H29.4041V34.9613L31.3278 33.4699V19.8739L29.4041 18.5122V17.9502L32.9922 16.6317H33.7055V26.4233L36.7748 24.0024C37.0774 23.8872 37.4593 23.8295 37.9204 23.8295C38.8859 23.8295 39.6497 24.1321 40.2117 24.7374C40.7736 25.3282 41.0546 26.1351 41.0546 27.1583V33.967L43 34.7668L42.6109 35.5233Z" fill="black"/>
</svg>
